<svg width="576" height="512" viewBox="0 0 576 512" fill="none" xmlns="http://www.w3.org/2000/svg">
<g clip-path="url(#clip0_1:6)">
<path d="M512 9.15527e-05H64C28.65 9.15527e-05 0 28.6501 0 64.0001V224C0 259.35 28.65 288 64 288H512C547.35 288 576 259.35 576 224V64.0001C576 28.65 547.3 9.15527e-05 512 9.15527e-05ZM256 76C256 69.375 261.375 64 268 64H308C314.625 64 320 69.375 320 76V116C320 122.625 314.625 128 308 128H268C261.4 128 256 122.6 256 116V76ZM160 76C160 69.375 165.375 64 172 64H212C218.625 64 224 69.375 224 76V116C224 122.625 218.625 128 212 128H172C165.4 128 160 122.6 160 116V76ZM128 212C128 218.625 122.625 224 116 224H76C69.375 224 64 218.625 64 212V172C64 165.375 69.375 160 76 160H116C122.625 160 128 165.375 128 172V212ZM128 116C128 122.625 122.625 128 116 128H76C69.38 128 64 122.6 64 116V76C64 69.375 69.375 64 76 64H116C122.625 64 128 69.375 128 76V116ZM416 212C416 218.625 410.625 224 404 224H172C165.375 224 160 218.625 160 212V172C160 165.375 165.375 160 172 160H404C410.625 160 416 165.375 416 172V212ZM416 116C416 122.625 410.625 128 404 128H364C357.375 128 352 122.625 352 116V76C352 69.375 357.375 64 364 64H404C410.625 64 416 69.375 416 76V116ZM512 212C512 218.625 506.625 224 500 224H460C453.375 224 448 218.625 448 212V172C448 165.375 453.375 160 460 160H500C506.625 160 512 165.375 512 172V212ZM512 116C512 122.625 506.625 128 500 128H460C453.375 128 448 122.625 448 116V76C448 69.375 453.375 64 460 64H500C506.625 64 512 69.375 512 76V116ZM392 351.9H184C174.451 351.9 165.81 357.56 162 366.32C158.186 375.076 159.921 385.29 166.405 392.28L270.405 504.38C279.903 514.62 296.095 514.62 305.595 504.38L409.595 392.28C416.079 385.292 417.814 375.08 414.004 366.32C410.2 357.6 401.5 351.9 392 351.9Z" fill="#5E81AC"/>
</g>
<defs>
<clipPath id="clip0_1:6">
<rect width="576" height="512" fill="white"/>
</clipPath>
</defs>
</svg>
