<svg width="576" height="512" viewBox="0 0 576 512" fill="none" xmlns="http://www.w3.org/2000/svg">
<path d="M444.6 181.9C434.32 173.556 419.19 175.025 410.85 185.306C402.444 195.556 403.944 210.676 414.225 219.086C425.5 228.4 432 241.8 432 256C432 270.19 425.5 283.62 414.19 292.87C403.91 301.276 402.41 316.4 410.815 326.65C415.534 332.462 422.435 335.462 429.375 335.462C434.719 335.462 440.125 333.681 444.565 330.056C467.1 311.6 480 284.7 480 256C480 227.3 467.1 200.4 444.6 181.9ZM505.1 108C494.88 99.656 479.76 101.094 471.32 111.344C462.914 121.594 464.414 136.714 474.664 145.124C508.6 172.9 528 213.3 528 256C528 298.7 508.56 339.09 474.69 366.9C464.44 375.306 462.94 390.43 471.346 400.68C476.096 406.461 482.966 409.461 489.906 409.461C495.281 409.461 500.656 407.68 505.126 404.024C550.2 367.1 576 313.1 576 256C576 198.9 550.2 144.9 505.1 108ZM333.2 34.84C321.7 29.653 308.19 31.724 298.77 40.099L163.8 160H80C53.49 160 32 181.49 32 207.1V302.2C32 328.71 53.49 349.3 80 349.3H163.84L298.74 469.2C304.7 477.2 312.3 480 320 480C324.438 480 328.959 479.069 333.16 477.163C344.7 472 352 460.6 352 448V64C352 51.41 344.7 39.1 333.2 34.84Z" fill="#D08770"/>
</svg>
