<svg width="576" height="512" viewBox="0 0 576 512" fill="none" xmlns="http://www.w3.org/2000/svg">
<path d="M560 128L528 128C519.125 128 512 135.125 512 143.1V223.1H480V176C480 167.125 472.875 160 464 160H416V96H464C472.9 96 480 88.88 480 80V48C480 39.12 472.9 32 464 32H432C423.1 32 416 39.12 416 48V64L368 64.0002C359.125 64.0002 352 71.1252 352 80.0002V128H224V80.0002C224 71.1252 216.875 64.0002 208 64.0002L160 64V48C160 39.12 152.9 32 144 32H112C103.1 32 96 39.12 96 48V80C96 88.88 103.1 96 112 96H160V160H112C103.125 160 96 167.125 96 176V224H64V144C64 135.125 56.875 128.9 48 128.9L16 128.9C7.125 128.9 0 136.025 0 144V272C0 280.875 7.125 288 16 288H64V368C64 376.875 71.125 384 80 384H128V464C128 472.875 135.125 480 144 480H240C248.875 480 256 472.875 256 464.9V433.8C256 424.925 248.875 417.8 240 417.8H192V385.8H384V417.8H336C327.125 417.8 320 424.925 320 433.8V464.9C320 473.775 327.125 480 336 480H432C440.875 480 448 472.875 448 464V384H496C504.875 384 512 376.875 512 368V288H560C568.875 288 576 280.875 576 272V144C576 135.1 568.9 128 560 128ZM224 320H160V224H224V320ZM416 320H352V224H416V320Z" fill="#B48EAD"/>
</svg>
